<svg xmlns="http://www.w3.org/2000/svg" viewBox="0 0 139.84 109.47"><defs><style>.cls-1{fill:#d7d9dd;}.cls-2{fill:#eaf0fe;}.cls-3{fill:#197209;}.cls-4{fill:#ffda89;}.cls-5{fill:#27af0b;}.cls-6{fill:#248c0e;}.cls-7{fill:#4c4c4c;}.cls-8{fill:#050505;}.cls-9{fill:#dae2f2;}.cls-10{fill:#60d3be;}.cls-11{fill:#4e49a3;}.cls-12{fill:#ffc190;}.cls-13{fill:#2e3b57;}.cls-14{fill:#ba5a71;}.cls-15{fill:#c86277;}.cls-16{fill:#5f82d6;}</style></defs><title>Asset 4</title><g id="Layer_2" data-name="Layer 2"><g id="Layer_1-2" data-name="Layer 1"><path class="cls-1" d="M65.55,85.76h-.71v-1h.7c1.45,0,2.28,0,2.28,0l0,1S67,85.76,65.55,85.76Zm-3.73-.06c-.92,0-1.94-.07-3-.13l.05-1c1.07.06,2.08.1,3,.13Zm-6-.33c-1-.08-2-.16-3-.27l.1-1c1,.1,2,.19,3,.27Zm-6-.61c-1-.12-2-.26-3-.42l.15-1q1.51.23,3,.41Zm-6-.92q-1.47-.27-3-.59l.21-1q1.47.32,2.93.59Zm-5.9-1.28q-1.46-.37-2.92-.8l.29-1q1.43.43,2.88.79Zm-5.8-1.73c-1-.34-1.93-.7-2.83-1.07l.38-.93c.89.36,1.83.72,2.79,1ZM26.5,78.53c-.93-.45-1.84-.92-2.69-1.41l.5-.87c.83.47,1.72.94,2.63,1.37Zm-5.27-3c-.86-.59-1.67-1.21-2.43-1.84l.64-.76c.73.61,1.52,1.21,2.35,1.78Zm-4.65-3.93a23.46,23.46,0,0,1-2-2.35l.81-.59a22.4,22.4,0,0,0,1.87,2.25Zm-3.56-5a20.84,20.84,0,0,1-1.22-2.81l.94-.33a19.75,19.75,0,0,0,1.16,2.67Zm-2-5.76a22.89,22.89,0,0,1-.38-3l1-.06a22.08,22.08,0,0,0,.36,2.9Zm.63-6-1-.06a30.26,30.26,0,0,1,.34-3l1,.16A29.42,29.42,0,0,0,11.64,54.84ZM12.57,49l-1-.24c.24-.95.52-1.93.85-2.91l.95.31C13.08,47.13,12.8,48.09,12.57,49Zm1.83-5.65L13.46,43c.36-.94.75-1.88,1.15-2.8l.92.4C15.13,41.51,14.75,42.44,14.4,43.37Zm2.39-5.44-.89-.45c.46-.91.94-1.8,1.43-2.67l.87.5C17.71,36.15,17.24,37,16.79,37.92Zm3-5.15-.84-.55c.55-.85,1.13-1.69,1.73-2.49l.8.6C20.85,31.12,20.28,31.94,19.74,32.77ZM23.27,28l-.76-.65c.65-.77,1.34-1.53,2-2.25l.72.69C24.58,26.51,23.91,27.25,23.27,28Zm32.31-1-.13-1A5.25,5.25,0,0,0,58,25l.62.79A6.29,6.29,0,0,1,55.59,27Zm-3.18-.6a8.21,8.21,0,0,1-2.55-1.89l.74-.68a7.3,7.3,0,0,0,2.24,1.66Zm-25-2.66L26.73,23c.76-.68,1.54-1.33,2.33-1.94l.61.79C28.9,22.45,28.13,23.09,27.4,23.75Zm32.84-.84-1-.1c0-.09,0-.17,0-.26a4.16,4.16,0,0,0-.77-2.24l.84-.55a5.13,5.13,0,0,1,.93,2.78Q60.25,22.73,60.23,22.91ZM48.16,21.85a9.33,9.33,0,0,1-.67-3.08l1,0a8.31,8.31,0,0,0,.6,2.75ZM32.08,20.14l-.55-.84c.85-.56,1.73-1.08,2.61-1.56l.48.88C33.77,19.08,32.91,19.59,32.08,20.14ZM56.57,18.2a19.85,19.85,0,0,0-1.69-1.31q-.31-.21-.64-.4l.49-.87q.38.21.72.45a20.88,20.88,0,0,1,1.78,1.38Zm-19.3-.88-.4-.92c.94-.41,1.9-.77,2.85-1.08l.31,1C39.12,16.57,38.19,16.92,37.27,17.32ZM48.8,15.9l-1-.25A13.08,13.08,0,0,1,49,12.75l.88.47q-.22.42-.41.85a15.87,15.87,0,0,1,2.38.4l-.25,1a15.08,15.08,0,0,0-2.52-.4Q48.91,15.47,48.8,15.9Zm-5.92-.39-.21-1a25.56,25.56,0,0,1,3-.46l.09,1A24.48,24.48,0,0,0,42.88,15.51Zm8.58-4.71-.78-.62a22.45,22.45,0,0,1,2.08-2.26l.69.72A21.37,21.37,0,0,0,51.46,10.8Zm4.22-4.07-.61-.79c.65-.5,1.35-1,2.07-1.48l.55.83C57,5.77,56.31,6.25,55.68,6.74Z"/><ellipse class="cls-2" cx="65.6" cy="106.67" rx="65.6" ry="2.79"/><path class="cls-3" d="M119.17,67.41a10.2,10.2,0,1,0,12.47,7.26A10.2,10.2,0,0,0,119.17,67.41Zm4,15A5.36,5.36,0,1,1,127,75.9,5.37,5.37,0,0,1,123.15,82.46Z"/><path class="cls-3" d="M122.07,69.1l-4.45,1.17s-1.7-3.34-1.14-4.31,3.52-1.85,4.44-1.17S122.07,69.1,122.07,69.1Z"/><path class="cls-3" d="M125.68,84.45l-4.45,1.17s.17,3.75,1.14,4.31,4-.12,4.45-1.17S125.68,84.45,125.68,84.45Z"/><path class="cls-4" d="M115.87,71.34l-1.79,4.23s-3.68-.7-4.1-1.74.69-3.92,1.79-4.23S115.87,71.34,115.87,71.34Z"/><path class="cls-4" d="M113.93,77.59l.43,4.58s-3.58,1.13-4.43.42-1.25-3.77-.43-4.58S113.93,77.59,113.93,77.59Z"/><path class="cls-3" d="M130,77.77l-1-4.49s3.41-1.56,4.35-1,1.71,3.59,1,4.49S130,77.77,130,77.77Z"/><path class="cls-3" d="M123.86,69.08l3.65,2.8s2.86-2.43,2.71-3.53-2.53-3.07-3.65-2.8S123.86,69.08,123.86,69.08Z"/><path class="cls-4" d="M119,85.88l-3.65-2.8s-2.86,2.43-2.71,3.53,2.53,3.07,3.65,2.8S119,85.88,119,85.88Z"/><path class="cls-3" d="M127.9,83.68l1.79-4.23s3.68.7,4.1,1.73-.69,3.92-1.79,4.23S127.9,83.68,127.9,83.68Z"/><path class="cls-3" d="M124.39,32.95a10.2,10.2,0,1,0,12.47,7.26A10.2,10.2,0,0,0,124.39,32.95Zm4,15a5.36,5.36,0,1,1,3.82-6.55A5.36,5.36,0,0,1,128.36,48Z"/><path class="cls-4" d="M127.29,34.63l-4.45,1.17s-1.7-3.34-1.14-4.31,3.52-1.85,4.45-1.17S127.29,34.63,127.29,34.63Z"/><path class="cls-3" d="M130.89,50l-4.45,1.17s.18,3.75,1.14,4.31,4-.12,4.44-1.17S130.89,50,130.89,50Z"/><path class="cls-4" d="M121.08,36.88l-1.79,4.23s-3.68-.7-4.1-1.73.69-3.92,1.79-4.23S121.08,36.88,121.08,36.88Z"/><path class="cls-4" d="M119.14,43.12l.43,4.58s-3.58,1.13-4.43.42-1.25-3.77-.43-4.58S119.14,43.12,119.14,43.12Z"/><path class="cls-3" d="M135.2,43.31l-1-4.49s3.41-1.56,4.35-1,1.71,3.59,1,4.49S135.2,43.31,135.2,43.31Z"/><path class="cls-3" d="M129.08,34.62l3.65,2.8s2.85-2.43,2.71-3.53-2.53-3.07-3.65-2.8S129.08,34.62,129.08,34.62Z"/><path class="cls-4" d="M124.21,51.42l-3.65-2.8s-2.86,2.43-2.71,3.53,2.53,3.07,3.65,2.8S124.21,51.42,124.21,51.42Z"/><path class="cls-3" d="M133.12,49.22,134.91,45s3.68.7,4.1,1.74-.69,3.92-1.79,4.23S133.12,49.22,133.12,49.22Z"/><polygon class="cls-5" points="54.56 7.43 52.24 6.74 54.9 3.99 64.7 7.37 54.56 7.43"/><polygon class="cls-6" points="54.36 11.23 64.7 7.37 54.64 6.06 54.36 11.23"/><polygon class="cls-6" points="64.7 7.37 54.79 4.71 55.54 0 64.7 7.37"/><polygon class="cls-3" points="52.24 6.74 54.64 6.06 54.56 7.43 52.24 6.74"/><rect class="cls-7" x="62.36" y="85.13" width="26.63" height="17.48"/><path class="cls-8" d="M116.42,30.55H35.2a4.12,4.12,0,0,0-4.12,4.12V82.09h89.47V34.67A4.13,4.13,0,0,0,116.42,30.55Z"/><path class="cls-7" d="M116.42,97.92H35.2a4.12,4.12,0,0,1-4.12-4.12V82.09h89.47v11.7A4.13,4.13,0,0,1,116.42,97.92Z"/><rect class="cls-7" x="35.59" y="102.61" width="73.45" height="4.06"/><rect class="cls-2" x="34.12" y="34.89" width="82.61" height="47.2"/><rect class="cls-9" x="65.83" y="24.58" width="63.74" height="36.61"/><rect class="cls-2" x="67.32" y="25.66" width="59.47" height="3.23"/><rect class="cls-2" x="68.17" y="30.51" width="22.6" height="29.13"/><rect class="cls-9" x="70.09" y="49.4" width="17.69" height="8.46"/><rect class="cls-9" x="70.09" y="32.72" width="17.69" height="1.19"/><rect class="cls-9" x="70.09" y="35.41" width="17.69" height="1.2"/><rect class="cls-9" x="70.09" y="38.64" width="17.69" height="1.2"/><rect class="cls-9" x="70.09" y="41.33" width="17.69" height="1.2"/><rect class="cls-2" x="97.17" y="30.51" width="29.63" height="1.43"/><rect class="cls-2" x="97.17" y="33.19" width="29.63" height="1.44"/><rect class="cls-2" x="97.17" y="36.42" width="29.63" height="1.44"/><rect class="cls-2" x="97.17" y="39.83" width="29.63" height="18.96"/><rect class="cls-9" x="99.72" y="41.92" width="25.15" height="8.53"/><rect class="cls-9" x="68.17" y="26.47" width="32.29" height="1.53"/><rect class="cls-9" x="112.83" y="26.47" width="12.79" height="1.53"/><rect class="cls-9" x="40.45" y="53.36" width="63.74" height="36.61"/><rect class="cls-2" x="41.94" y="54.45" width="59.47" height="3.23"/><rect class="cls-2" x="42.79" y="59.3" width="22.6" height="29.13"/><rect class="cls-9" x="44.71" y="78.19" width="17.69" height="8.46"/><rect class="cls-9" x="44.71" y="61.51" width="17.69" height="1.19"/><rect class="cls-9" x="44.71" y="64.2" width="17.69" height="1.2"/><rect class="cls-9" x="44.71" y="67.43" width="17.69" height="1.2"/><rect class="cls-9" x="44.71" y="70.12" width="17.69" height="1.2"/><rect class="cls-2" x="71.78" y="59.3" width="29.63" height="1.43"/><rect class="cls-2" x="71.78" y="61.98" width="29.63" height="1.44"/><rect class="cls-2" x="71.78" y="65.21" width="29.63" height="1.44"/><rect class="cls-2" x="71.78" y="68.62" width="29.63" height="18.96"/><rect class="cls-9" x="74.34" y="70.71" width="25.15" height="8.53"/><rect class="cls-9" x="42.79" y="55.26" width="32.3" height="1.53"/><rect class="cls-9" x="87.45" y="55.26" width="12.79" height="1.53"/><path class="cls-10" d="M25.35,82.79c-.92-.36,2.82-5.67-1.25-7.83-5.35-2.84.54-11.8-1.71-11.58-3.37.33-4.3,5.57-3.69,11.42.78,7.47-3,5.45-3.12,5.42-2.18-1-3.12,0-2.16,6.42S16.86,98.07,19,97.75a1.24,1.24,0,0,0,.38-.12,2.17,2.17,0,0,0,.41.07,2,2,0,0,0,.93-.2c2.67.13,2.83-1,5.07-6.78C28.21,84.41,28,83.83,25.35,82.79Z"/><polygon class="cls-3" points="25.38 106.88 15.89 106.88 14.85 95.99 26.42 95.99 25.38 106.88"/><path class="cls-11" d="M90,106.79c0,1.42-.68,2.56-1.51,2.56h0c-.83,0-1.51-1.15-1.51-2.56V47c0-1.42.67-2.57,1.51-2.57h0c.83,0,1.51,1.15,1.51,2.57Z"/><path class="cls-11" d="M101.41,106.79c0,1.42-.68,2.56-1.51,2.56h0c-.83,0-1.51-1.15-1.51-2.56V47c0-1.42.68-2.57,1.51-2.57h0c.83,0,1.51,1.15,1.51,2.57Z"/><path class="cls-11" d="M99.9,49.83c0,.42-.92.75-2.05.75h-7.3c-1.13,0-2.05-.34-2.05-.75h0c0-.42.92-.75,2.05-.75h7.3c1.13,0,2.05.34,2.05.75Z"/><path class="cls-11" d="M99.9,55c0,.42-.92.75-2.05.75h-7.3c-1.13,0-2.05-.34-2.05-.75h0c0-.41.92-.75,2.05-.75h7.3c1.13,0,2.05.34,2.05.75Z"/><path class="cls-11" d="M99.9,61.07c0,.42-.92.75-2.05.75h-7.3c-1.13,0-2.05-.34-2.05-.75h0c0-.41.92-.75,2.05-.75h7.3c1.13,0,2.05.34,2.05.75Z"/><path class="cls-11" d="M99.9,66.26c0,.41-.92.75-2.05.75h-7.3c-1.13,0-2.05-.34-2.05-.75h0c0-.42.92-.75,2.05-.75h7.3c1.13,0,2.05.34,2.05.75Z"/><path class="cls-11" d="M99.9,71.88c0,.42-.92.75-2.05.75h-7.3c-1.13,0-2.05-.34-2.05-.75h0c0-.42.92-.75,2.05-.75h7.3c1.13,0,2.05.34,2.05.75Z"/><path class="cls-11" d="M99.9,77.07c0,.42-.92.75-2.05.75h-7.3c-1.13,0-2.05-.34-2.05-.75h0c0-.42.92-.75,2.05-.75h7.3c1.13,0,2.05.34,2.05.75Z"/><path class="cls-11" d="M99.9,83.12c0,.42-.92.75-2.05.75h-7.3c-1.13,0-2.05-.34-2.05-.75h0c0-.41.92-.75,2.05-.75h7.3c1.13,0,2.05.34,2.05.75Z"/><path class="cls-11" d="M99.9,88.31c0,.42-.92.75-2.05.75h-7.3c-1.13,0-2.05-.34-2.05-.75h0c0-.42.92-.75,2.05-.75h7.3c1.13,0,2.05.34,2.05.75Z"/><path class="cls-11" d="M99.9,94.8c0,.42-.92.75-2.05.75h-7.3c-1.13,0-2.05-.34-2.05-.75h0c0-.41.92-.75,2.05-.75h7.3c1.13,0,2.05.34,2.05.75Z"/><path class="cls-11" d="M99.9,100c0,.41-.92.75-2.05.75h-7.3c-1.13,0-2.05-.34-2.05-.75h0c0-.42.92-.75,2.05-.75h7.3c1.13,0,2.05.34,2.05.75Z"/><path class="cls-11" d="M99.9,105.61c0,.42-.92.75-2.05.75h-7.3c-1.13,0-2.05-.34-2.05-.75h0c0-.42.92-.75,2.05-.75h7.3c1.13,0,2.05.34,2.05.75Z"/><path class="cls-12" d="M86,40.05l-4.9,7.82L69.66,43.31l.34-1,9.36,2.13,4.73-6.71S85.5,35.36,87,36.43A8,8,0,0,1,86,40.05Z"/><path class="cls-12" d="M70.2,42.48s-1.62-1.25-2.05-1.08-1.43,1.23,1.72,1.84Z"/><path class="cls-12" d="M99.65,42.41l-4.9,7.82L83.28,45.67l.34-1L93,46.81l4.73-6.71s1.41-2.38,2.93-1.32A8.06,8.06,0,0,1,99.65,42.41Z"/><path class="cls-12" d="M83.82,44.84s-1.62-1.25-2.06-1.08S80.33,45,83.49,45.59Z"/><polygon class="cls-13" points="96.2 92.37 95.54 92.43 95.42 93.44 95.19 93.88 93.36 95.37 96.65 94.3 96.2 92.37"/><polygon class="cls-13" points="98.56 90.61 98.04 91.02 98.5 91.92 98.55 92.42 97.85 94.67 100 91.96 98.56 90.61"/><polygon class="cls-14" points="99.4 56.02 97.55 76.39 96.89 93.19 95.3 93.19 93.71 75.73 91.73 56.02 99.4 56.02"/><polygon class="cls-15" points="84.85 56.02 85.38 74.61 97.81 91.6 99.4 90.81 90.81 75.47 93.84 57.08 93.84 56.02 84.85 56.02"/><polygon class="cls-16" points="99.4 56.02 84.85 56.02 86.44 45.84 86.44 35.65 92.23 34.48 99.4 35.15 99.4 44.98 99.4 56.02"/><path class="cls-10" d="M87,35.7s2.37,1.35-1.61,5.67l-2.36-2.55S84.84,35.17,87,35.7Z"/><path class="cls-10" d="M99,35.11s2.7-.37,2.18,5.48L97.74,40S96.91,36,99,35.11Z"/><path class="cls-12" d="M93.45,35.11c0,.51-2,.51-2,0a10.35,10.35,0,0,1,.2-2.58L93.12,32S93.39,34,93.45,35.11Z"/><path class="cls-12" d="M91.87,33.35c-.14,0-1.42.23-1.62-.4a8.28,8.28,0,0,1,.17-3.5,1.68,1.68,0,0,1,1.75-.69c.46.2,1.71,1.53,1,3.81A2.25,2.25,0,0,1,91.87,33.35Z"/><path class="cls-13" d="M90.13,29.45s.12.79.68.73,1.52-.23,1.62.2-.3,1.89,0,2.25,1.06.79,1.22.26.5-3.8-1.22-4.56A2,2,0,0,0,90.13,29.45Z"/></g></g></svg>