<svg xmlns="http://www.w3.org/2000/svg" viewBox="0 0 143.14 97.94"><defs><style>.cls-1{fill:#dae2f2;}.cls-2{fill:#4c4c4c;}.cls-3{fill:#d7d9dd;}.cls-4{fill:#eaf0fe;}.cls-5{fill:#197209;}.cls-6{fill:#ffda89;}.cls-7{fill:#050505;}.cls-8{fill:#60d3be;}.cls-9{fill:#fff;}.cls-10{fill:#f0c542;}.cls-11{fill:#fad77e;}.cls-12{fill:#fad784;}.cls-13{fill:#dbab33;}.cls-14{fill:#ffc190;}.cls-15{fill:#2e3b57;}.cls-16{fill:#c86277;}</style></defs><title>Asset 1</title><g id="Layer_2" data-name="Layer 2"><g id="Layer_1-2" data-name="Layer 1"><path class="cls-1" d="M107.75,65.74a13.23,13.23,0,1,0,18.58,2.21A13.23,13.23,0,0,0,107.75,65.74Zm12.49,15.86a7,7,0,1,1,1.16-9.77A7,7,0,0,1,120.24,81.59Z"/><path class="cls-1" d="M112.07,66.25l-4.68,3.69s-3.74-3.1-3.57-4.54,3.23-4,4.68-3.69S112.07,66.25,112.07,66.25Z"/><path class="cls-1" d="M124.27,82.66l-4.68,3.69s2.14,4.37,3.57,4.54,4.66-2.2,4.68-3.69S124.27,82.66,124.27,82.66Z"/><path class="cls-1" d="M105.84,72.12l.05,6s-4.74,1.06-5.77,0-1.2-5-.05-6S105.84,72.12,105.84,72.12Z"/><path class="cls-1" d="M106.76,80.55l2.87,5.22S106,89,104.57,88.55s-3.44-3.84-2.87-5.22S106.76,80.55,106.76,80.55Z"/><path class="cls-1" d="M126,72.49l-3.5-4.83s3.25-3.61,4.68-3.39,3.88,3.39,3.49,4.83S126,72.49,126,72.49Z"/><path class="cls-1" d="M114.19,65.3,120,66.75s2.15-4.36,1.41-5.6-4.59-2.35-5.78-1.45S114.19,65.3,114.19,65.3Z"/><path class="cls-1" d="M117.06,87.8l-5.78-1.45s-2.15,4.36-1.4,5.6,4.59,2.35,5.78,1.45S117.06,87.8,117.06,87.8Z"/><path class="cls-1" d="M126.53,80.59l-.05-6s4.75-1.06,5.77-.05,1.2,5,.05,6S126.53,80.59,126.53,80.59Z"/><path class="cls-2" d="M44.58,86.83a2.4,2.4,0,0,1-.82,3.29h0a2.4,2.4,0,0,1-3.29-.82l-21.06-35a2.4,2.4,0,0,1,.82-3.3h0a2.4,2.4,0,0,1,3.29.82Z"/><path class="cls-2" d="M18.41,43.31l3.34,5.57-4.11,2.47L14.3,45.78a6.35,6.35,0,1,0,4.12-2.47Z"/><path class="cls-3" d="M61.13,75.87h-.87v-1h.86c1.35,0,2.12,0,2.12,0l0,1S62.51,75.87,61.13,75.87Zm-3.89-.07c-.93,0-1.94-.08-3-.14l.06-1c1.07.06,2.08.11,3,.14Zm-6-.36c-1-.08-2-.18-3-.29l.11-1c1,.11,2,.21,3,.29Zm-6-.66q-1.47-.2-3-.46l.17-1q1.5.25,3,.45Zm-6-1q-1.47-.3-3-.65l.23-1q1.46.35,2.92.64Zm-5.88-1.42c-1-.28-2-.59-2.89-.9l.32-.95c.91.31,1.87.6,2.85.88Zm-5.74-1.94c-1-.38-1.89-.79-2.78-1.21l.43-.9c.88.42,1.79.82,2.72,1.19Zm-5.48-2.62c-.9-.52-1.77-1.06-2.57-1.62l.57-.82c.78.54,1.62,1.08,2.5,1.58Zm-5-3.5A24.33,24.33,0,0,1,15,62.15l.75-.66a23.39,23.39,0,0,0,2.09,2.06Zm-4-4.57A19.63,19.63,0,0,1,11.65,57l.91-.41A18.47,18.47,0,0,0,14,59.17ZM10.6,54.17a20.46,20.46,0,0,1-.59-3l1-.12a19.6,19.6,0,0,0,.56,2.85Zm.25-6h-1a26.59,26.59,0,0,1,.22-3l1,.13A25.74,25.74,0,0,0,10.85,48.13Zm.74-5.84-1-.22c.22-1,.49-1.94.8-2.93l1,.3C12.06,40.4,11.79,41.36,11.58,42.29Zm1.75-5.66-.94-.35c.36-1,.74-1.89,1.14-2.8l.92.4C14.06,34.77,13.69,35.69,13.34,36.63Zm2.38-5.44-.89-.45c.46-.9.94-1.8,1.44-2.66l.87.5C16.64,29.42,16.16,30.3,15.72,31.18Zm3-5.13-.83-.55c.56-.85,1.16-1.68,1.76-2.47l.79.61C19.82,24.41,19.24,25.22,18.69,26.05Zm3.6-4.71-.75-.66c.67-.76,1.38-1.51,2.09-2.2l.7.71C23.64,19.87,23,20.6,22.29,21.35ZM50.37,21a7.26,7.26,0,0,1-2.89-1.36l.61-.79a6.24,6.24,0,0,0,2.49,1.17Zm3.24-.47-.43-.9A3.66,3.66,0,0,0,55,17.87l.92.39A4.64,4.64,0,0,1,53.6,20.56Zm-8.21-3.28a8.53,8.53,0,0,1-1-3l1-.15a7.56,7.56,0,0,0,.92,2.64Zm-18.86-.07-.64-.77c.78-.65,1.59-1.28,2.41-1.86l.58.82C28.07,16,27.28,16.57,26.52,17.21Zm28.31-1.82a8,8,0,0,0-1.74-2.2l.68-.73a9,9,0,0,1,2,2.49ZM31.34,13.79l-.51-.86c.89-.52,1.79-1,2.69-1.42l.42.91C33.08,12.82,32.2,13.29,31.34,13.79Zm19.46-2.38a9.58,9.58,0,0,0-2.62-1.09l.25-1a10.58,10.58,0,0,1,2.9,1.2Zm-5.41-.09-1-.18a10.69,10.69,0,0,1,.32-1.26,19.91,19.91,0,0,0-2.33.1l-.1-1a20.24,20.24,0,0,1,2.79-.1q.15-.35.32-.71l.9.44A10.58,10.58,0,0,0,45.4,11.32Zm-8.71,0-.33-.94a28,28,0,0,1,2.93-.86l.23,1A27.08,27.08,0,0,0,36.68,11.29ZM47.85,6.16l-.79-.61a20.82,20.82,0,0,1,2.06-2.28l.69.72A19.56,19.56,0,0,0,47.85,6.16Zm4.2-4.07-.61-.79C52,.85,52.64.42,53.27,0l.55.83C53.21,1.24,52.61,1.66,52.05,2.09Z"/><ellipse class="cls-4" cx="71.57" cy="95.34" rx="71.57" ry="2.6"/><path class="cls-5" d="M23,63.13A9.51,9.51,0,1,0,34.64,69.9,9.51,9.51,0,0,0,23,63.13Zm3.71,14a5,5,0,1,1,3.56-6.11A5,5,0,0,1,26.72,77.17Z"/><path class="cls-5" d="M25.71,64.71,21.57,65.8s-1.58-3.12-1.06-4,3.28-1.73,4.15-1.09S25.71,64.71,25.71,64.71Z"/><path class="cls-5" d="M29.08,79l-4.15,1.09s.16,3.49,1.06,4S29.7,84,30.14,83,29.08,79,29.08,79Z"/><path class="cls-5" d="M19.93,66.8l-1.67,3.95s-3.44-.66-3.83-1.62.64-3.65,1.67-3.95S19.93,66.8,19.93,66.8Z"/><path class="cls-5" d="M18.12,72.62l.4,4.27s-3.33,1.05-4.13.39S13.22,73.76,14,73,18.12,72.62,18.12,72.62Z"/><path class="cls-6" d="M33.1,72.79l-.93-4.19s3.18-1.46,4.06-.9,1.59,3.35.92,4.19S33.1,72.79,33.1,72.79Z"/><path class="cls-5" d="M27.39,64.69l3.4,2.61S33.45,65,33.32,64,31,61.15,29.92,61.4,27.39,64.69,27.39,64.69Z"/><path class="cls-5" d="M22.85,80.36l-3.4-2.61S16.78,80,16.92,81s2.36,2.86,3.4,2.61S22.85,80.36,22.85,80.36Z"/><path class="cls-6" d="M31.15,78.31l1.67-3.95S36.26,75,36.65,76,36,79.63,35,79.92,31.15,78.31,31.15,78.31Z"/><path class="cls-5" d="M82.78,9.67A17.28,17.28,0,1,0,103.9,22,17.28,17.28,0,0,0,82.78,9.67Zm6.73,25.5A9.09,9.09,0,1,1,96,24.06,9.09,9.09,0,0,1,89.51,35.16Z"/><path class="cls-5" d="M87.69,12.52l-7.53,2s-2.87-5.67-1.92-7.3,6-3.14,7.53-2S87.69,12.52,87.69,12.52Z"/><path class="cls-6" d="M93.8,38.54l-7.53,2s.3,6.35,1.93,7.3,6.73-.21,7.53-2S93.8,38.54,93.8,38.54Z"/><path class="cls-5" d="M77.18,16.33l-3,7.17s-6.24-1.19-7-2.94,1.16-6.64,3-7.17S77.18,16.33,77.18,16.33Z"/><path class="cls-6" d="M73.9,26.91l.73,7.76s-6.06,1.91-7.51.71S65,29,66.38,27.62,73.9,26.91,73.9,26.91Z"/><path class="cls-5" d="M101.11,27.22l-1.68-7.6S105.21,17,106.79,18s2.9,6.09,1.68,7.61S101.11,27.22,101.11,27.22Z"/><path class="cls-5" d="M90.73,12.5l6.18,4.74s4.84-4.12,4.59-6-4.29-5.2-6.18-4.74S90.73,12.5,90.73,12.5Z"/><path class="cls-6" d="M82.48,41,76.3,36.22s-4.84,4.11-4.59,6,4.29,5.2,6.18,4.74S82.48,41,82.48,41Z"/><path class="cls-6" d="M97.57,37.23l3-7.17s6.24,1.19,6.95,2.94-1.16,6.64-3,7.17S97.57,37.23,97.57,37.23Z"/><rect class="cls-2" x="58.15" y="75.25" width="24.83" height="16.3"/><path class="cls-7" d="M108.56,24.35H32.82A3.85,3.85,0,0,0,29,28.2V72.41h83.44V28.2A3.85,3.85,0,0,0,108.56,24.35Z"/><path class="cls-2" d="M108.56,87.17H32.82A3.84,3.84,0,0,1,29,83.33V72.41h83.44V83.33A3.85,3.85,0,0,1,108.56,87.17Z"/><rect class="cls-2" x="33.19" y="91.55" width="68.5" height="3.79"/><rect class="cls-4" x="31.81" y="28.4" width="77.04" height="44.01"/><path class="cls-8" d="M127.66,72.44c-.85-.33,2.63-5.29-1.16-7.3-5-2.65.51-11-1.59-10.8-3.14.31-4,5.19-3.45,10.65.72,7-2.84,5.09-2.91,5.05-2-.92-2.91,0-2,6s3.21,10.66,5.19,10.37a1.16,1.16,0,0,0,.35-.11,2.11,2.11,0,0,0,.38.07,1.85,1.85,0,0,0,.86-.19c2.49.13,2.64-.93,4.73-6.32C130.33,73.94,130.17,73.41,127.66,72.44Z"/><polygon class="cls-5" points="127.69 94.9 118.84 94.9 117.87 84.75 128.66 84.75 127.69 94.9"/><path class="cls-5" d="M127.28,41.54c0,9.24-11.45,14.35-20.69,14.35s-16-5.24-16-14.48,7.91-14.28,17.15-14.28S127.28,32.3,127.28,41.54Z"/><polygon class="cls-5" points="92.52 60.22 98.61 52.83 93.45 45.43 92.52 60.22"/><path class="cls-9" d="M99.09,45.41V44.3l1-.92c1.71-1.53,2.54-2.41,2.57-3.33,0-.64-.39-1.14-1.29-1.14a2.84,2.84,0,0,0-1.68.65l-.52-1.31a4.34,4.34,0,0,1,2.57-.81,2.43,2.43,0,0,1,2.75,2.46c0,1.31-1,2.36-2.09,3.37l-.72.6v0h3v1.51Z"/><path class="cls-9" d="M109,45.41V43.54h-3.47V42.35l3-4.77h2.24v4.59h.94v1.37h-.94v1.87Zm0-3.24V40.43c0-.47,0-1,.06-1.46h0c-.25.51-.46,1-.72,1.46l-1,1.71v0Z"/><path class="cls-9" d="M112.16,45.89l2.58-8.74H116l-2.58,8.74Z"/><path class="cls-9" d="M122.07,37.58v1.16l-3.23,6.68H116.9l3.23-6.3v0h-3.59V37.58Z"/><polygon class="cls-10" points="76.1 27.46 75.05 27.15 76.25 25.91 80.67 27.44 76.1 27.46"/><polygon class="cls-11" points="76 29.18 80.67 27.44 76.13 26.84 76 29.18"/><polygon class="cls-12" points="80.67 27.44 76.2 26.23 76.53 24.11 80.67 27.44"/><polygon class="cls-13" points="75.05 27.15 76.13 26.84 76.1 27.46 75.05 27.15"/><path class="cls-2" d="M82.37,35.46a4.25,4.25,0,0,1-4.25,4.25h0a4.25,4.25,0,0,1-4.25-4.25V31.41a4.25,4.25,0,0,1,4.25-4.25h0a4.25,4.25,0,0,1,4.25,4.25Z"/><path class="cls-14" d="M59.74,37.13c.36,8.3,5,14.88,10.41,14.69s9.46-7.07,9.1-15.37-5-14.89-10.41-14.7S59.38,28.82,59.74,37.13Z"/><path class="cls-15" d="M78,29.18s-5.2.85-14.15-2.53c0,0-6.88,6.57-2.36,16.87,0,0-6.59-6-3.34-16.38s10-8.46,13.63-9.74,7.76,1,10.45-1.42S85.77,22.9,78,29.18Z"/><path class="cls-14" d="M57.95,37.06c.06,2.27,1.08,4.07,2.28,4s2.11-2,2-4.23-1.09-4.07-2.28-4S57.88,34.78,57.95,37.06Z"/><path class="cls-16" d="M68.84,53.57c-11.37,0-20.91,10.58-23.58,24.87H92.42C89.76,64.14,80.21,53.57,68.84,53.57Z"/><polygon class="cls-14" points="72.98 57.48 69.5 61.62 66.02 57.48 66.02 49.65 72.98 49.65 72.98 57.48"/><path class="cls-2" d="M62.4,36a4.25,4.25,0,0,1-4.25,4.25h0A4.25,4.25,0,0,1,53.91,36V32a4.25,4.25,0,0,1,4.25-4.25h0A4.25,4.25,0,0,1,62.4,32Z"/><path class="cls-2" d="M70.72,17.21H64.06a7.41,7.41,0,0,0-7.41,7.41v4.57h2.12V25.37a5.94,5.94,0,0,1,5.94-5.94h5.35A5.94,5.94,0,0,1,76,25.37v3.81h2.12V24.61A7.41,7.41,0,0,0,70.72,17.21Z"/><path class="cls-15" d="M66,22.51s2.54-4.82,5.91-5.17,7.18.41,8.72-.48,3.78-2.66,3.45.48S85,27.58,78.38,31.13c0,0-12.29-.22-14.57-4.48Z"/><path class="cls-2" d="M75.84,45.17a1.49,1.49,0,0,1-1.49,1.49H72.85a1.49,1.49,0,0,1-1.49-1.49h0a1.49,1.49,0,0,1,1.49-1.49h1.49a1.49,1.49,0,0,1,1.49,1.49Z"/><path class="cls-2" d="M76.49,46.19a27.63,27.63,0,0,1-3-.19l.22-2c2.4.27,5,.17,5.51-.21a10.45,10.45,0,0,0,0-5.18l1.92-.55a12.34,12.34,0,0,1,0,6.45C80.66,45.81,78.7,46.19,76.49,46.19Z"/></g></g></svg>