<svg xmlns="http://www.w3.org/2000/svg" viewBox="0 0 132.2 91.52"><defs><style>.cls-1{fill:#dae2f2;}.cls-2{fill:#eaf0fe;}.cls-3{fill:#d7d9dd;}.cls-4{fill:#27af0b;}.cls-5{fill:#248c0e;}.cls-6{fill:#197209;}.cls-7{fill:#050505;}.cls-8{fill:#ecebe4;}.cls-9{fill:#60d3be;}.cls-10{fill:#f7ae30;}.cls-11{fill:#c86277;}.cls-12{fill:#a84e67;}.cls-13{fill:#ffc190;}.cls-14{fill:#5f82d6;}.cls-15{fill:#2e3b57;}.cls-16{fill:#ffda89;}.cls-17{fill:#868be9;}</style></defs><title>Asset 2</title><g id="Layer_2" data-name="Layer 2"><g id="Layer_1-2" data-name="Layer 1"><rect class="cls-1" x="50.47" y="13.78" width="63.74" height="36.61"/><rect class="cls-2" x="51.97" y="14.86" width="59.47" height="3.23"/><rect class="cls-2" x="52.82" y="19.71" width="22.6" height="29.13"/><rect class="cls-1" x="54.74" y="38.6" width="17.69" height="8.46"/><rect class="cls-1" x="54.74" y="21.92" width="17.69" height="1.19"/><rect class="cls-1" x="54.74" y="24.61" width="17.69" height="1.2"/><rect class="cls-1" x="54.74" y="27.84" width="17.69" height="1.2"/><rect class="cls-1" x="54.74" y="30.53" width="17.69" height="1.2"/><rect class="cls-2" x="81.81" y="19.71" width="29.63" height="1.43"/><rect class="cls-2" x="81.81" y="22.4" width="29.63" height="1.43"/><rect class="cls-2" x="81.81" y="25.62" width="29.63" height="1.44"/><rect class="cls-2" x="81.81" y="29.03" width="29.63" height="18.96"/><rect class="cls-1" x="84.37" y="31.12" width="25.15" height="8.53"/><rect class="cls-1" x="52.82" y="15.67" width="32.29" height="1.53"/><rect class="cls-1" x="97.48" y="15.67" width="12.79" height="1.53"/><ellipse class="cls-2" cx="66.59" cy="88.2" rx="65.6" ry="2.79"/><path class="cls-3" d="M54.91,86.83h-.66l0-1h.7c1.45,0,2.27,0,2.28,0l0,1S56.39,86.83,54.91,86.83Zm-3.73-.06c-.92,0-1.93-.07-3-.13l.05-1c1.07.06,2.08.1,3,.13Zm-6-.33c-1-.07-2-.16-3-.27l.1-1c1,.1,2,.19,3,.27Zm-6-.61q-1.47-.19-3-.42l.15-1c1,.15,2,.29,3,.42Zm-6-.92q-1.47-.27-3-.59l.21-1q1.47.32,2.93.58Zm-5.9-1.28q-1.46-.37-2.92-.8l.29-1q1.43.42,2.88.79Zm-5.8-1.73c-1-.34-1.92-.7-2.83-1.07L19,79.9c.9.37,1.83.72,2.79,1ZM15.87,79.6c-.94-.45-1.84-.92-2.69-1.41l.5-.87c.83.47,1.71.94,2.63,1.37Zm-5.27-3c-.85-.59-1.67-1.21-2.42-1.84L8.82,74c.73.62,1.52,1.21,2.35,1.78ZM6,72.64a23.69,23.69,0,0,1-2-2.35l.81-.59A22.77,22.77,0,0,0,6.68,72Zm-3.57-5a20.73,20.73,0,0,1-1.22-2.81l.95-.33a19.65,19.65,0,0,0,1.16,2.67Zm-2-5.76a23,23,0,0,1-.37-3l1-.06a22,22,0,0,0,.36,2.9Zm.63-6-1-.06a30,30,0,0,1,.34-3l1,.16C1.17,54,1.06,55,1,55.91Zm.93-5.82-1-.24c.24-.95.52-1.93.85-2.91l.95.31C2.45,48.2,2.17,49.16,1.93,50.08Zm1.83-5.65-.93-.36c.36-.94.75-1.88,1.15-2.8l.92.4C4.5,42.58,4.12,43.51,3.76,44.44ZM6.16,39l-.89-.45c.46-.91.94-1.81,1.43-2.67l.87.5C7.08,37.22,6.6,38.1,6.16,39Zm3-5.15-.84-.54c.55-.84,1.13-1.68,1.73-2.49l.8.6C10.21,32.19,9.64,33,9.11,33.84Zm3.53-4.76-.76-.64c.66-.78,1.34-1.53,2-2.25l.72.7C14,27.58,13.28,28.32,12.64,29.07Zm32.31-1-.13-1a5.25,5.25,0,0,0,2.5-1l.62.79A6.28,6.28,0,0,1,44.95,28.08Zm-3.18-.6a8.22,8.22,0,0,1-2.55-1.89l.74-.68a7.32,7.32,0,0,0,2.24,1.66Zm-25-2.66-.67-.74c.76-.68,1.54-1.34,2.33-1.94l.61.79C18.27,23.51,17.5,24.15,16.76,24.82ZM49.6,24l-1-.1a2.58,2.58,0,0,0,0-.26,4.16,4.16,0,0,0-.77-2.24l.84-.54a5.13,5.13,0,0,1,.93,2.78C49.62,23.74,49.61,23.86,49.6,24ZM37.53,22.91a9.3,9.3,0,0,1-.67-3.08l1,0a8.34,8.34,0,0,0,.6,2.75ZM21.45,21.2l-.55-.84c.85-.56,1.73-1.08,2.61-1.56l.48.88C23.13,20.15,22.28,20.66,21.45,21.2Zm24.49-1.94A20.14,20.14,0,0,0,44.24,18q-.3-.21-.64-.4l.5-.87q.37.21.72.45a21.07,21.07,0,0,1,1.78,1.38Zm-19.3-.88-.4-.92c.94-.41,1.9-.77,2.85-1.08l.31,1C28.48,17.64,27.55,18,26.64,18.39ZM38.16,17l-1-.25a13.09,13.09,0,0,1,1.14-2.89l.88.47q-.23.42-.42.85a15.74,15.74,0,0,1,2.38.4l-.24,1a15.1,15.1,0,0,0-2.52-.4C38.32,16.39,38.24,16.68,38.16,17Zm-5.92-.38-.21-1a25.31,25.31,0,0,1,3-.46l.09,1A24.14,24.14,0,0,0,32.24,16.58Zm8.58-4.71L40,11.25A22.52,22.52,0,0,1,42.12,9l.69.72A21.37,21.37,0,0,0,40.82,11.87ZM45,7.81,44.44,7c.64-.5,1.34-1,2.07-1.48l.55.83C46.35,6.84,45.67,7.32,45,7.81Z"/><polygon class="cls-4" points="45.6 7.22 43.63 8.43 43.39 4.77 52.06 0 45.6 7.22"/><polygon class="cls-5" points="48.17 9.8 52.06 0 44.68 6.29 48.17 9.8"/><polygon class="cls-5" points="52.06 0 43.82 5.31 40.97 1.77 52.06 0"/><polygon class="cls-6" points="43.63 8.43 44.68 6.29 45.6 7.22 43.63 8.43"/><path class="cls-7" d="M111.76,37.92a3.82,3.82,0,0,1,3.81,3.83l-.13,42.64a3.82,3.82,0,0,1-3.83,3.81L32.14,88a3.82,3.82,0,0,1-3.81-3.83l.13-42.64a3.81,3.81,0,0,1,3.83-3.8Z"/><rect class="cls-2" x="47.33" y="28.41" width="42.32" height="69.36" transform="translate(5.19 131.38) rotate(-89.82)"/><path class="cls-8" d="M109,59.47A3.58,3.58,0,1,1,105.4,63,3.58,3.58,0,0,1,109,59.47Z"/><rect class="cls-1" x="37.2" y="48.04" width="62.58" height="35.95"/><rect class="cls-2" x="38.66" y="49.11" width="58.4" height="3.17"/><rect class="cls-2" x="39.5" y="53.87" width="22.19" height="28.6"/><rect class="cls-1" x="41.38" y="72.42" width="17.37" height="8.31"/><rect class="cls-1" x="41.38" y="56.04" width="17.37" height="1.17"/><rect class="cls-1" x="41.38" y="58.68" width="17.37" height="1.17"/><rect class="cls-1" x="41.38" y="61.85" width="17.37" height="1.17"/><rect class="cls-1" x="41.38" y="64.49" width="17.37" height="1.18"/><rect class="cls-2" x="67.97" y="53.87" width="29.09" height="1.41"/><rect class="cls-2" x="67.97" y="56.51" width="29.09" height="1.41"/><rect class="cls-2" x="67.97" y="59.68" width="29.09" height="1.41"/><rect class="cls-2" x="67.97" y="63.02" width="29.09" height="18.62"/><rect class="cls-1" x="70.48" y="65.08" width="24.7" height="8.38"/><rect class="cls-1" x="39.5" y="49.9" width="31.71" height="1.5"/><rect class="cls-1" x="83.35" y="49.9" width="12.56" height="1.5"/><path class="cls-9" d="M21,64.23c-.92-.36,2.82-5.67-1.25-7.83-5.35-2.84.54-11.8-1.71-11.58-3.37.33-4.3,5.57-3.69,11.42.78,7.47-3,5.45-3.12,5.42-2.18-1-3.12,0-2.17,6.42s3.45,11.43,5.56,11.12a1.21,1.21,0,0,0,.38-.12,2.18,2.18,0,0,0,.41.07,2,2,0,0,0,.93-.2c2.67.14,2.83-1,5.07-6.77C23.87,65.84,23.7,65.27,21,64.23Z"/><polygon class="cls-1" points="21.04 88.31 11.55 88.31 10.51 77.42 22.08 77.42 21.04 88.31"/><polygon class="cls-10" points="52.27 87.38 51.54 87.62 51.67 88.79 51.52 89.36 49.84 91.52 53.29 89.44 52.27 87.38"/><polygon class="cls-10" points="52.77 86.19 53.53 86.25 53.66 87.43 53.94 87.94 56.06 89.67 52.24 88.43 52.77 86.19"/><polygon class="cls-11" points="47.07 53.87 46.49 72.49 51.47 88.73 52.96 88.03 50.37 73.59 54.96 58.54 47.07 53.87"/><polygon class="cls-12" points="53.84 57.99 53.84 72.89 52.07 87.34 53.84 87.34 57.35 72.66 60.54 54.65 53.84 57.99"/><path class="cls-13" d="M81.26,45.58s2.09-1.12,2.57-.84,1.41,1.68-2.33,1.77Z"/><path class="cls-14" d="M63.14,41.27l4.94,9.53L81.8,46.61l-.3-1.17L70.44,47,65.6,38.79s-1.41-2.9-3.27-1.81A9.36,9.36,0,0,0,63.14,41.27Z"/><path class="cls-9" d="M58.54,35c-1.79,0-5.86,1.38-7,3.65s-1.71,8-1.71,8l-2.75,7.17s5.39,7.61,13.48,2.67c0,0,2-7.36,3.3-10.46.78-1.81,3.28-6.71,1.1-8.48C61.77,35,60.36,35.07,58.54,35Z"/><path class="cls-13" d="M60.8,32.77l-1.35,2.57s2.82,3.19,2.8,1.75a32.59,32.59,0,0,1,.37-3.9Z"/><path class="cls-13" d="M61.51,29.62a3.67,3.67,0,0,0-.89,2.31c.15.81.32,2.23,1.09,2.74a1.2,1.2,0,0,0,1.65-.43c.34-.49,1.21-3.5,0-4.55C62.49,28.89,61.78,29.24,61.51,29.62Z"/><path class="cls-15" d="M63.8,30.36a1.73,1.73,0,0,1-1.62,0c-.88-.44-1,.51-1,.61s-.16,1.46-.49,1.41-.39-1.79.34-2.79A1.56,1.56,0,0,1,63.8,30.36Z"/><path class="cls-15" d="M60.81,32.92a2.89,2.89,0,0,0,1.74,1.24c.64.07,1.2-.94,1.25-1.17s-.17,2.12-1.55,1.89S60.81,32.92,60.81,32.92Z"/><path class="cls-13" d="M57.18,55.93s2,1.24,2,1.78-.73,2.07-2.71-1.11Z"/><path class="cls-14" d="M51.7,38.13,46,47.22l10.58,9.7.85-.85-7-8.73L55.09,39s2.05-3.68-.1-3.73C53.9,35.23,52.9,36.29,51.7,38.13Z"/><path class="cls-13" d="M115,39.39l-6.17,6.44-10-6.56.52-.86,8.45,3.84,5.79-5.43s1.8-2,3-.67A7.79,7.79,0,0,1,115,39.39Z"/><path class="cls-13" d="M99.52,38.6s-1.29-1.5-1.73-1.42-1.6.88,1.27,2.08Z"/><path class="cls-13" d="M125.2,42.1l-8.26,3.37-6.42-10,.82-.57,6.14,7,7.5-2.6s2.45-1.07,3,.62A7.79,7.79,0,0,1,125.2,42.1Z"/><path class="cls-13" d="M111.41,35.07s-.56-1.89-1-2-1.81.15.31,2.41Z"/><polygon class="cls-16" points="121.68 86.73 121.08 86.78 120.97 87.71 120.76 88.11 119.09 89.47 122.1 88.5 121.68 86.73"/><polygon class="cls-16" points="123.85 85.11 123.37 85.49 123.79 86.31 123.84 86.78 123.19 88.83 125.17 86.35 123.85 85.11"/><polygon class="cls-12" points="124.62 53.42 122.92 72.08 122.31 87.48 120.86 87.48 119.4 71.48 117.59 53.42 124.62 53.42"/><polygon class="cls-11" points="111.28 53.42 111.77 70.45 123.16 86.02 124.62 85.3 116.74 71.24 119.52 54.39 119.52 53.42 111.28 53.42"/><polygon class="cls-9" points="124.52 57.13 110.75 54.28 114.24 44.95 116.23 35.31 121.94 35.34 128.6 37.37 126.68 46.67 124.52 57.13"/><path class="cls-17" d="M116.79,35.48s2,1.74-2.64,5l-1.73-2.87S114.81,34.55,116.79,35.48Z"/><path class="cls-17" d="M128.85,37.54s2.42,1.06-1,5.61l-2.52-2.21S126.68,37.25,128.85,37.54Z"/><path class="cls-13" d="M123,36.17c-.07.49-2,.09-1.94-.4a10.1,10.1,0,0,1,.69-2.4l1.55-.24S123.13,35.14,123,36.17Z"/><path class="cls-13" d="M121.82,34.2c-.14,0-1.39-.06-1.46-.69a8,8,0,0,1,.84-3.29,1.62,1.62,0,0,1,1.79-.31c.4.28,1.32,1.78.22,3.8A2.17,2.17,0,0,1,121.82,34.2Z"/><path class="cls-15" d="M120.94,30.17s0,.77.5.82,1.49.08,1.5.5-.66,1.73-.44,2.13.85,1,1.11.49,1.21-3.5-.27-4.56A2,2,0,0,0,120.94,30.17Z"/></g></g></svg>